<?xml version="1.0" encoding="utf-8"?>
<!-- Generator: Adobe Illustrator 23.1.0, SVG Export Plug-In . SVG Version: 6.00 Build 0)  -->
<svg version="1.1" id="Layer_1" xmlns="http://www.w3.org/2000/svg" xmlns:xlink="http://www.w3.org/1999/xlink" x="0px" y="0px"
	 viewBox="0 0 529.53 149.99" style="enable-background:new 0 0 529.53 149.99;" xml:space="preserve">
<style type="text/css">
	.st0{fill:#FFFFFF;}
	.st1{fill:#3FA453;}
	.st2{fill:#499FC8;}
	.st3{fill:#8CBD40;}
	.st4{fill:#324F68;}
	.st5{fill:#40A455;}
	.st6{fill:#8DBE42;}
	.st7{fill:#416FA9;}
	.st8{fill:#71C4E3;}
	.st9{fill:#6EB979;}
	.st10{fill:#4B9EC8;}
	.st11{fill:#3E75A6;}
	.st12{fill:#8EBE41;}
	.st13{fill:#4370A9;}
	.st14{fill:#CAD42E;}
	.st15{fill:#CBD52E;}
	.st16{fill:#3E76A6;}
	.st17{fill:#4474AB;}
	.st18{fill:#4E9CC6;}
	.st19{fill:#C8D330;}
	.st20{fill:#345066;}
	.st21{fill:#4EA758;}
	.st22{fill:#8FBE42;}
	.st23{fill:#4F9CC5;}
	.st24{fill:#48A257;}
	.st25{fill:#44616A;}
	.st26{fill:#4E9EC8;}
	.st27{fill:#378949;}
	.st28{fill:#8FBD44;}
	.st29{fill:#4470A9;}
	.st30{fill:#81BADB;}
	.st31{fill:#90BF42;}
	.st32{fill:#4D9EC7;}
	.st33{fill:#CCD459;}
	.st34{fill:#507CAD;}
	.st35{fill:#3B5568;}
	.st36{fill:#67A9CF;}
	.st37{fill:#415A73;}
	.st38{fill:#DAE1E5;}
	.st39{fill:#8DBC4B;}
	.st40{fill:#90BF47;}
	.st41{fill:#5F6F8C;}
	.st42{fill:#7890B4;}
	.st43{fill:#70B875;}
	.st44{fill:#71C1E1;}
	.st45{fill:#6F8EA9;}
	.st46{fill:#556B83;}
	.st47{fill:#71B344;}
	.st48{fill:#3D75A5;}
	.st49{fill:#8BBC42;}
	.st50{fill:#A1CA88;}
	.st51{fill:#8CBE40;}
	.st52{fill:#CBD52C;}
	.st53{fill:#416FA7;}
	.st54{fill:#4A9DC6;}
	.st55{fill:#49738C;}
	.st56{fill:#688BB6;}
	.st57{fill:#D2E5F1;}
	.st58{fill:#40A353;}
	.st59{fill:#325067;}
	.st60{fill:#CAD42D;}
	.st61{fill:#375A7C;}
	.st62{fill:#71C4E4;}
	.st63{fill:#499EC8;}
	.st64{fill:#6B86A8;}
	.st65{fill:#4A9EC7;}
	.st66{fill:#325068;}
	.st67{fill:#66A5CB;}
	.st68{fill:#C7D332;}
	.st69{fill:#8CBE41;}
	.st70{fill:#8EBF61;}
	.st71{fill:#72C4E3;}
	.st72{fill:#3FA454;}
	.st73{fill:#D8DCE2;}
	.st74{fill:#7FC5E4;}
	.st75{fill:#4A9FC9;}
	.st76{fill:#4B9FC9;}
	.st77{fill:#757676;}
	.st78{fill:#747675;}
	.st79{fill:#FEFFFF;}
	.st80{fill:#FEFEFE;}
	.st81{fill:#999999;}
	.st82{fill:#F9F9F9;}
	.st83{fill:#979797;}
	.st84{fill:#A0A0A0;}
	.st85{fill:#9A9A9A;}
	.st86{fill:#969696;}
	.st87{fill:#ADADAD;}
	.st88{fill:#A8A8A8;}
	.st89{fill:#8A8A8A;}
	.st90{fill:#9E9E9E;}
	.st91{fill:#9B9B9B;}
	.st92{fill:#909090;}
	.st93{fill:#8F8F8F;}
	.st94{fill:#8D8D8D;}
	.st95{fill:#A1A1A1;}
	.st96{fill:#8E8E8E;}
	.st97{fill:#8B8B8B;}
	.st98{fill:#868686;}
	.st99{fill:#A5A5A5;}
	.st100{fill:#919191;}
	.st101{fill:#989898;}
	.st102{fill:#949494;}
	.st103{fill:#B2B2B2;}
	.st104{fill:#C1C1C1;}
	.st105{fill:#B6B6B6;}
	.st106{fill:#B4B4B4;}
	.st107{fill:#A6A6A6;}
	.st108{fill:#B7B7B7;}
	.st109{fill:#C2C2C2;}
	.st110{fill:#C0C0C0;}
	.st111{fill:#BFBFBF;}
	.st112{fill:#DBDBDB;}
	.st113{fill:#BEBEBE;}
	.st114{fill:#DEDEDE;}
	.st115{fill:#B3B3B3;}
	.st116{fill:#808080;}
	.st117{fill:#7F7F7F;}
	.st118{fill:#B5B5B5;}
	.st119{fill:#D7D7D7;}
	.st120{fill:#B1B1B1;}
	.st121{fill:#747474;}
	.st122{fill:#ABABAB;}
	.st123{fill:#EDEDED;}
	.st124{fill:#F0F0F0;}
	.st125{fill:#FBFBFB;}
	.st126{fill:#FDFDFD;}
	.st127{fill:#489ECA;}
	.st128{fill:#7DB2D4;}
	.st129{fill:#AACAE1;}
	.st130{fill:#DCE8F1;}
	.st131{fill:#59A5CB;}
	.st132{fill:#E0E9F3;}
	.st133{fill:#ACCAE3;}
	.st134{fill:#89B8D8;}
	.st135{fill:#C5DAEA;}
	.st136{fill:#B9D3E5;}
	.st137{fill:#E9F0F7;}
	.st138{fill:#D9E6EF;}
</style>
<g>
	<g>
		<circle class="st0" cx="66.89" cy="69.29" r="90.16"/>
		<path class="st1" d="M118.76,75.54c-1,1.29-1.99,2.58-2.99,3.87c-1.71,0.29-3.14-0.42-4.55-1.25c-5.11-3.05-10.6-5.42-15.68-8.52
			c-0.84-0.51-1.69-1.07-3.19-0.98c-3.55,5.23-3.96,11.89-6.51,17.72c-0.18,0.33-0.43,0.6-0.73,0.82c-0.71,0.36-1.43,0.38-2.17,0.11
			c-5.12-4.22-10.34-8.33-15.33-12.72c-1.02-0.89-2.13-1.71-2.34-3.2c0.01-0.62,0.23-1.15,0.71-1.56c3.19-1.84,6.85-1.8,10.3-2.58
			c4.91-1.11,9.87-1.99,14.83-2.88c6.42-1.07,12.85-2.11,19.23-3.42c3.5-0.72,7.03-1.25,10.57-1.65c1.34-0.15,3.1-0.53,3.17,1.79
			c-0.31,0.62-0.63,1.24-0.94,1.86c-0.36,1.91,0.43,4.03-1.02,5.75C121.65,71.31,120.69,73.66,118.76,75.54z"/>
		<path class="st2" d="M42.5,15.95c6.74-1.32,13.43,3.71,20.19,0.16c0.43,1.63,1.43,2.79,2.81,3.75c4.16,2.88,8.14,6.02,12.99,8.75
			c-1.87-5.16-3.9-9.86-5.62-14.66c-0.44-1.22-1.46-2.41-0.38-3.8c3.7,1.94,7.4,3.89,11.11,5.83c4.71,2.5,9.35,5.09,13.09,9.02
			c0.04,0.37-0.02,0.73-0.17,1.08c-1.71,2.27-4.46,2.57-6.84,3.46c-3.45,1.28-6.5,3.61-10.3,3.98c-5.83-1.04-11.69-1.89-17.46-3.19
			c-6.54-3.01-11.75-8.1-17.96-11.62C42.98,18.16,42.19,17.27,42.5,15.95z"/>
		<path class="st3" d="M85.1,86.71c1.95-6.66,3.89-13.33,6.04-20.67c8.74,4.74,16.69,9.05,24.63,13.36
			c-0.45,0.66-0.9,1.33-1.35,1.99c-3.02,0.67-5.97,1.7-9.08,2.02c-5.31,0.97-10.55,2.24-15.8,3.47
			C88.07,87.23,86.52,88.22,85.1,86.71z"/>
		<path class="st4" d="M42.5,15.95c6.25,4.36,12.49,8.71,18.74,13.07c0.03,0.62,0.23,1.24,0.05,1.86c-0.2,0.64-0.57,1.12-1.18,1.42
			c-6.93,0.06-13.82-0.12-20.33-2.96c-0.31-0.27-0.56-0.6-0.75-0.96c-0.74-2.08-0.54-4.27-0.65-6.42c0.06-1.39,0.79-2.48,1.62-3.52
			c0.21-0.77,0.42-1.54,0.7-2.58C41.27,15.89,41.88,15.92,42.5,15.95z"/>
		<path class="st5" d="M80.05,32.46c5.43-2.28,10.86-4.57,16.29-6.85c2.83-2.3,5.77-4.32,9.7-3.8c2.1-0.63,4.19-1.26,6.29-1.9
			c0.17,0.48,0.31,1.04-0.01,1.43c-4.37,5.48-8.51,11.2-14.68,14.94c-5.48,0.33-10.67-1.5-16.01-2.19
			C80.85,34,79.9,33.66,80.05,32.46z"/>
		<path class="st6" d="M95.64,96.65c-1.49-0.02-2.98-0.03-4.46-0.05c-3.04,1.28-6.03,0.11-9.03-0.18c-0.79-0.16-1.57-0.35-2.38-0.35
			c-2.17-0.31-4.32-0.72-6.52-0.7c-1.01,0.08-2.02-0.03-3.03-0.02c-1.43,0.04-2.86,0.05-4.28-0.21c-2.53-1.2-5.8-0.48-7.82-3
			c-0.1-0.43-0.01-0.81,0.27-1.14c7.01-1.83,14.07-3.38,21.33-3.82c4.15-0.26,7.77,1.39,11.34,3.18c2.46,1.53,5.15,2.82,6.3,5.58
			C96.82,96.93,96.26,96.9,95.64,96.65z"/>
		<path class="st7" d="M72.48,10.14c2.57,6.58,5.14,13.16,9.39,24.05c-7.53-9.12-16.93-9.22-19.18-18.08
			C65.95,14.12,69.22,12.13,72.48,10.14z"/>
		<path class="st8" d="M124.07,61.09c-10.04-1.32-19.3,3.12-29.06,3.89c-1.31,0.1-2.63,0.1-3.95,0.15
			c-0.19-0.31-0.24-0.64-0.16-0.99c2.58-3.47,4.85-7.21,8.4-9.86c0.35-0.11,0.71-0.17,1.07-0.18c1.1,0.12,2.18,0.4,3.31,0.35
			c2.49,0.12,4.95,0.59,7.31,1.3c3.71,1.12,7.48,1.38,11.3,1.4C122.89,58.47,123.48,59.78,124.07,61.09z"/>
		<path class="st9" d="M95.64,96.65c0.55-3.53-3.2-3.25-4.53-5.11c-1.49-2.19-4.99-1.84-5.94-4.7c0,0-0.07-0.12-0.07-0.12
			c6.94-1.46,13.88-2.93,20.82-4.39c1.47,1.61-0.1,2.92-0.41,4.35c-0.61,1.31-0.37,2.66-0.22,4.02c-3.26,0.63-3.11,3.63-4.27,6.55
			C99.31,97.05,97.48,96.85,95.64,96.65z"/>
		<path class="st10" d="M103.03,55.33c-0.98-0.17-1.95-0.34-2.93-0.51c-0.72-1.5,0.52-2.27,1.24-3.18c2.6-3.31,5.23-6.59,7.66-10.03
			c0.24-0.28,0.52-0.49,0.84-0.67c1.74-0.49,3.12,0.52,4.6,1.11c2.37,0.97,4.52,2.53,6.75,2.75c1.88-0.36,1.54-2.65,3.29-2.6
			c-0.07,1.46-0.14,2.93-0.23,4.92c0.4,0.92,3.43,1.59,1.27,3.9c-4.12,0.07-7.97,1.64-12.01,2.24
			C110,53.79,106.47,54.35,103.03,55.33z"/>
		<path class="st11" d="M31.38,88.73c-4.71-2.14-9.42-4.28-14.13-6.42c0.07-1.73,1.54-1.69,2.64-1.93c2.5-0.55,5.01-1.08,7.58-1.1
			c1.62,0.05,2.88,1.41,4.75,1.3c2.6-1.43,4.06-4.43,6.82-5.91c4.97-0.41,9.27,0.99,12.75,4.66c-1.8,2.38-4.98,1.18-7.1,2.73
			c-2.81,1.1-5.65,2.08-8.66,2.55c-1.13,0.18-2.51,0.15-2.92,1.68C32.68,87.23,32.39,88.24,31.38,88.73z"/>
		<path class="st12" d="M13.8,60.01c-2.26-3.02-4.53-6.04-6.79-9.06c5.92-3.15,12.3-4.08,18.9-4.01c0.94,0.46,1.18,1.36,0.89,2.18
			c-1.14,3.21-1.92,6.64-4.91,8.82c-1.61,0.17-3.02,0.86-4.41,1.67C16.35,60.26,15.16,61.17,13.8,60.01z"/>
		<path class="st13" d="M96.34,25.03c-4.25-3.02-8.51-6.04-12.76-9.06c6.24-1.05,12.47-2.11,18.71-3.17
			c0.97-0.29,1.92-0.22,3.61,0.18C103.08,17.57,101.49,22.59,96.34,25.03z"/>
		<path class="st14" d="M98.65,35.36c4.56-5.15,9.12-10.3,13.68-15.45c0.52,1.66,1.03,3.32,1.55,4.99c1.29,2.15,0.99,4.47,0.75,6.78
			c0.02,1.59,0.24,3.23-1.2,4.75c-2.16,1.35-4.81,0.57-7.33,0.75c-0.45,0.01-0.9-0.02-1.34-0.08
			C102.84,36.13,100.36,37.08,98.65,35.36z"/>
		<path class="st15" d="M26.15,47.29c-6.38,1.22-12.76,2.44-19.14,3.65c2.88-2.21,5.75-4.41,8.63-6.62
			c4.17-2.65,7.75-6.33,12.84-7.38c1.44,0.33,2.37,1.15,2.61,2.66C29.93,42.48,28.99,45.5,26.15,47.29z"/>
		<path class="st16" d="M103.03,55.33c7.13-3.35,14.58-5.04,22.49-4.31c-1.07,2.04-2.15,4.08-3.22,6.12
			C115.48,60.7,109.52,55.2,103.03,55.33z"/>
		<path class="st17" d="M76.25,129.21c-1.99-0.03-3.97-0.07-5.96-0.1c-1.05-0.87-1.22-2.08-1.29-3.32
			c-0.28-5.04,0.78-10.01,0.95-15.03c0.03-1,0.23-2.3,1.8-2.27c1.47,0.9,2.03-0.06,2.65-1.21c0.72-1.33,1.41-2.9,3.47-2.02
			c-2.83,3.9-2.39,8.4-2.37,12.82c0.14,2.69,1.02,5.23,1.78,7.77C77.72,127.31,77.84,128.46,76.25,129.21z"/>
		<path class="st18" d="M72.37,110.03c-0.21-0.44-0.41-0.88-2.08-4.46c0,10.24,0,16.89,0,23.54c-1.54,0.01-3.07,0.02-4.61,0.02
			c-2.26-1.43-0.98-3.95-1.82-5.82c0.38-1,0.76-2.01,1.13-3.01c2.57-1.41,1.65-3.95,1.96-6.1c0.52-3.56-0.03-7.51,3.73-9.84
			c1.74-0.31,3.12-0.09,3.16,2.13C73.65,107.78,73.67,109.18,72.37,110.03z"/>
		<path class="st19" d="M13.8,60.01c2.45-0.73,4.9-1.46,7.35-2.19c0.3,0.18,0.59,0.35,0.89,0.53c2.52,1.4,6.1,0.89,7.57,4.19
			c-0.21,2.26-1.05,4.06-3.43,4.75c-4.41-0.15-8.34-2.24-12.56-3.15c-0.49-0.43-0.98-0.86-1.43-1.26
			C12.81,61.78,13.3,60.89,13.8,60.01z"/>
		<path class="st20" d="M104.49,36.05c0.33,0.06,0.66,0.13,0.99,0.19c3.13,0.3,6.21,0.53,9.35-0.38c2.19-0.63,4.58-0.74,6.68,0.7
			c1.07,0.15,2.14,0.3,3.2,0.45c-2.36,4.02-6.49,4.83-10.53,5.79c-1.45-0.37-2.9-0.73-4.36-1.1c-4.07-0.76-8.15-1.49-10.62-5.4
			C100.93,35.3,102.71,35.71,104.49,36.05z"/>
		<path class="st21" d="M18.34,36.84c0.38-4.25,0.76-8.5,1.14-12.75c0.74-0.39,1.36-0.05,1.97,0.34c2.51,2.85,5.05,5.68,7.3,8.75
			c0.03,1.21-0.72,2.08-1.33,3.01c-0.28,0.28-0.61,0.5-0.97,0.66C23.75,37.13,21.04,38.61,18.34,36.84z"/>
		<path class="st22" d="M20.98,24.95c-0.5-0.29-1-0.57-1.5-0.86c0.12-0.23,0.24-0.45,0.36-0.68c5.09-0.69,10.04-2.12,15.15-2.69
			c1.43-0.16,2.95-0.54,4.19,0.65c0.12,2.24,0.24,4.48,0.37,6.71c-0.51,1-1.36,1.28-2.4,1.16C31.69,28.05,26.35,26.44,20.98,24.95z"
			/>
		<path class="st23" d="M40.36,95.67c-2.12,1.49-3.51,0.13-4.9-1.25c0.52-1.53-0.63-2.81-0.66-4.26c-0.03-1.3-0.68-2.68,0.62-3.76
			c4.33-0.54,8.26,0.91,12.14,2.51c1.3,0.54,1.53,1.52,0.62,2.66C45.8,93.36,43.54,95.38,40.36,95.67z"/>
		<path class="st24" d="M121.51,36.56c-5.35-0.11-10.69-0.22-16.03-0.32c2.55,0,5.09,0,7.8,0c0.15-1.8,0.27-3.11,0.38-4.43
			c2.83-1.81,5.3-4.33,8.93-4.56C122.23,30.36,121.87,33.46,121.51,36.56z"/>
		<path class="st25" d="M40.36,95.67c2.3-1.37,4.6-2.75,6.9-4.12c1.75-0.5,3.58-0.46,5.15-0.5c1.49-1.31,0.79-3.34,2.18-4.38
			c2.78,0.75,1.57,4.24,3.74,5.41c2.51,0.69,5.02,1.39,7.53,2.08c-3.18,2.1-6.91,1.23-10.36,1.86c-2.04,0.37-4.21,0.14-6.31-0.03
			c-1.65,0.38-3.38-0.22-5,0.43C42.9,96.18,41.63,95.92,40.36,95.67z"/>
		<path class="st26" d="M28.47,80.13c-3.74,0.73-7.48,1.45-11.22,2.18c-1.43-4.29,1.55-7.31,3.09-10.75
			c0.92-0.21,1.64,0.17,2.24,0.82c0.22,0.49,0.19,0.91-0.3,1.23c0.51,0,0.93,0.19,1.25,0.61c0.55,1.49,1.9,2.19,3.03,3.13
			C27.43,78.08,28.85,78.51,28.47,80.13z"/>
		<path class="st27" d="M104.61,86.69c0.44-1.45,0.87-2.91,1.31-4.36c2.83-0.31,5.67-0.62,8.5-0.93c-0.15,2.6-0.3,5.21-0.45,7.81
			C110.69,88.96,107.12,89.78,104.61,86.69z"/>
		<path class="st28" d="M22.47,72.79c-0.71-0.41-1.42-0.82-2.13-1.23c-2.24-2.47-4.47-4.95-6.71-7.42
			c4.29,0.85,8.58,1.71,12.87,2.56C26.74,69.78,25.47,71.86,22.47,72.79z"/>
		<path class="st29" d="M114.19,42.8c3.51-1.93,7.02-3.86,10.53-5.79c-0.08,1.73-0.15,3.47-0.23,5.2c-0.57,1.43-1.14,2.85-1.92,4.82
			C119.54,45.5,116.86,44.15,114.19,42.8z"/>
		<path class="st30" d="M72.37,110.03c0.28-1.3,0.56-2.6,0.83-3.9c0.27-2.49,3.39-4.16,2.04-7.11c-0.66-2.04,0.4-2.92,2.24-3.04
			c0.95-0.06,1.88,0.02,2.73-0.5c0.54,0.04,1.08,0.07,1.61,0.11c1.23,1.37-0.47,3.53,1.29,4.76c-0.09,1.67-2.1,1.68-2.6,3
			c-0.88,0.64-1.76,1.27-2.64,1.91C74.49,105.06,76.32,110.87,72.37,110.03z"/>
		<path class="st31" d="M18.34,36.84c2.84-0.26,5.67-0.52,8.51-0.77c1.34-0.31,1.82,0.27,1.6,1.56c-4.27,2.23-8.54,4.47-12.81,6.7
			C16.54,41.83,17.44,39.33,18.34,36.84z"/>
		<path class="st32" d="M96.34,25.03c2.85-3.78,5.71-7.55,8.82-11.66c-1.29-0.25-2.08-0.4-2.87-0.56c1.01-0.25,2.03-0.5,3.75-0.92
			c0,3.65,0,6.79,0,9.92c-3.23,1.27-6.47,2.53-9.7,3.8C96.34,25.41,96.34,25.22,96.34,25.03z"/>
		<path class="st33" d="M39.17,21.38c-6.45,0.68-12.89,1.36-19.34,2.04c6.72-1.66,13.44-3.32,20.16-4.98
			C39.73,19.42,39.45,20.4,39.17,21.38z"/>
		<path class="st34" d="M71.09,104.7c-1.03,3.12-2.06,6.24-3.1,9.37c-0.54,1.22-1.33,0.84-2.14,0.34c0.11-2.67,0.23-5.34,0.34-8.01
			c-0.73-2.15-3.05-2.11-4.52-3.24c-0.76-0.58-1.9-0.81-0.94-2.11C63.38,100.23,69.27,102.32,71.09,104.7z"/>
		<path class="st35" d="M122.59,27.26c-2.98,1.52-5.96,3.04-8.93,4.56c0.07-2.3,0.15-4.6,0.22-6.91
			C116.78,25.69,119.68,26.47,122.59,27.26z"/>
		<path class="st36" d="M76.25,129.21c-0.25-3.71-0.5-7.42-0.75-11.12c3.66,2.78,0.18,10.89,7.97,11.12
			C81.07,129.21,78.66,129.21,76.25,129.21z"/>
		<path class="st37" d="M35.38,87.1c-0.22,2.44,2.51,4.84,0.09,7.31c-1.36-1.89-2.72-3.78-4.09-5.68c0.28-0.89,0.56-1.77,0.85-2.66
			C33.64,85.3,35.02,84.62,35.38,87.1z"/>
		<path class="st38" d="M82.93,100.1c-4.01-0.62-0.65-3.03-1.1-4.52c3.11,0.34,6.23,0.68,9.35,1.02c-0.59,0.43-1.17,0.86-1.76,1.29
			C86.85,97.46,85.68,101.09,82.93,100.1z"/>
		<path class="st39" d="M104.61,86.69c3.12,0.84,6.24,1.68,9.36,2.53c-2.89,0.49-5.79,0.99-8.68,1.48
			C103.01,89.7,103.52,88.24,104.61,86.69z"/>
		<path class="st40" d="M118.76,75.54c0.76-2.42,1.53-4.85,2.29-7.27c2.49-0.33,4.73-0.2,5.27,2.95
			C123.8,72.66,121.28,74.1,118.76,75.54z"/>
		<path class="st41" d="M60.58,101.56c1.29,2.29,5.93,0.69,5.61,4.84c-3.45-2.26-6.91-4.51-10.36-6.77
			c0.12-0.34,0.31-0.62,0.59-0.84C59.32,97.44,60.23,99.08,60.58,101.56z"/>
		<path class="st42" d="M44.18,96.43c1.49-0.25,2.99-0.5,4.48-0.74c2.59-0.09,5.19-0.29,7.68,0.73c0.72,1.09,0.54,2.13-0.21,3.12
			c0,0-0.3,0.09-0.3,0.09C51.95,98.56,48.06,97.49,44.18,96.43z"/>
		<path class="st43" d="M126.32,71.22c-1.76-0.98-3.52-1.97-5.27-2.95c0.69-1.77,1.39-3.54,2.08-5.31
			C123.4,66.02,127.88,67.45,126.32,71.22z"/>
		<path class="st44" d="M65.86,114.4c0.71-0.11,1.42-0.22,2.14-0.33c-0.26,2.66-0.52,5.33-0.87,8.85c-1.06-1.31-1.6-1.97-2.13-2.63
			C65.28,118.33,65.57,116.37,65.86,114.4z"/>
		<path class="st45" d="M82.93,100.1c2.16-0.73,4.33-1.47,6.49-2.2c-2.97,1.82-5.93,3.63-8.9,5.45
			C81.32,102.27,82.12,101.18,82.93,100.1z"/>
		<path class="st46" d="M63.86,123.31c0.61,1.94,1.21,3.88,1.82,5.82c-1.17,0-2.34,0-3.48,0C62.81,126.98,63.34,125.14,63.86,123.31
			z"/>
		<path class="st47" d="M80.11,88.26c-7.26,1.02-14.52,2.04-21.79,3.06c-2.06-0.47-1.4-2.07-1.1-3.19
			c1.39-5.16,3.82-9.95,5.62-14.97c0.41-1.14,1.36-2.19,2.9-1.25c5.74,4.95,11.49,9.91,17.23,14.86
			C82.84,88.85,80.84,87.33,80.11,88.26z"/>
		<path class="st48" d="M91.07,64.65c0.02,0.16,0.02,0.32,0,0.48c-8.41,1.84-16.82,3.68-25.23,5.52c-1.56-0.24-0.89-1.2-0.66-2.02
			c5.02-6.74,11.61-12.02,17.14-18.3c1.21-0.77,2.13-2.18,3.88-1.72c0.52,0.28,0.91,0.69,1.18,1.21
			C88.41,54.81,90.63,59.51,91.07,64.65z"/>
		<path class="st49" d="M65.74,68.95c0.03,0.57,0.07,1.13,0.1,1.7c-0.03,0.42-0.06,0.84-0.09,1.26c-4.16,5.82-6.7,12.27-7.42,19.41
			c0,0.25,0,0.51,0,0.76c-4.27,0.26-2.25-3.73-3.65-5.41c-2.19-1.55-1.89-3.89-1.95-6.12c0-0.82-0.27-1.58-0.54-2.34
			c-0.43-3.54-2.36-6.93-1.03-10.64c2.48-1.98,4.84,0.01,7.27,0.19c1.31,0.1,2.84,2.09,4-0.26c-0.18-3.49-0.9-6.91-0.92-10.38
			c-0.01-1.84-0.24-3.75,1.11-5.32c2.83,0.14,2.73,2.42,2.86,4.24C65.76,60.34,65.59,64.65,65.74,68.95z"/>
		<path class="st50" d="M80.11,88.26c0.96-0.49,1.91-0.99,2.87-1.48c0.73,0.02,1.46,0.04,2.19,0.06c1.98,1.57,3.96,3.13,5.94,4.7
			C87.46,90.38,84.43,87.16,80.11,88.26z"/>
		<path class="st51" d="M104.49,36.05c-1.66,0.23-3.32,0.46-4.98,0.69c-3.89,1.88-6.29,5.48-9.44,8.21c-1.16,1-0.49,1.94-0.32,2.95
			c-0.93,1.33-2.19,1.1-3.48,0.74c-0.54-0.22-1.07-0.08-1.61,0.03c-0.78,0.03-1.46-0.28-2.06-0.74c-7-5.35-13.74-11.04-20.88-16.2
			c-0.51-0.37-0.78-0.95-0.98-1.55c0.16-0.38,0.32-0.76,0.49-1.14c6.27,1.15,12.54,2.29,18.81,3.44c6.2,0.97,12.4,1.93,18.6,2.9
			C100.6,35.59,102.54,35.82,104.49,36.05z"/>
		<path class="st52" d="M60.75,30.16c7.92,5.96,15.84,11.91,23.76,17.87c-0.07,1.3-1.11,1.66-2.04,1.69
			c-6.11,0.18-12.23,0.46-18.33-0.16c-0.48-0.05-0.89-0.4-1.26-0.71c-1.93-4.02-2.34-8.37-2.72-12.72c-0.2-1.44-0.79-2.92,0.31-4.27
			C60.57,31.3,60.66,30.73,60.75,30.16z"/>
		<path class="st53" d="M60.47,31.87c0.23,1.15,0.47,2.31,0.7,3.46c-1.48,3.5-4.58,4.74-7.89,5.7c-1.65-0.24-2.9-1.28-4.25-2.13
			c-2.23-2.06-4.6-3.95-6.84-5.99c-1.17-1.06-2.89-1.99-2.37-4.11C46.71,29.82,53.59,30.84,60.47,31.87z"/>
		<path class="st54" d="M39.82,28.8c3.19,3.19,6.38,6.38,9.57,9.57c-0.68,0.84-1.65,1.19-2.63,1.11c-6.73-0.6-13.44-1.33-19.67-4.27
			c0.42-0.64,0.83-1.28,1.25-1.92c2.45-2.71,5.55-4.13,9.13-4.57c0.69-0.21,1.37-0.42,2.06-0.63C39.63,28.33,39.73,28.56,39.82,28.8
			z"/>
		<path class="st55" d="M56.12,96.44c-2.49-0.25-4.98-0.5-7.47-0.75c5.73-0.51,11.46-1.01,17.2-1.52c1.46,0.08,2.93,0.15,4.39,0.23
			c0.26,0.29,0.39,0.63,0.39,1.02c-0.25,1.49-0.35,3.12-2.52,2.99c-0.71-0.22-1.23-0.72-1.71-1.25c-2.37-1.94-4.84-0.12-7.27-0.17
			C58.05,97.27,56.98,97.42,56.12,96.44z"/>
		<path class="st56" d="M70.21,94.89c0-0.17,0.01-0.33,0.02-0.5c0.99,0.04,1.98,0.09,2.97,0.13c1.81,1.13,1.52,3.16,2.09,4.83
			c-0.63,2.45-1.4,4.69-4.69,3.05C68.94,99.98,70.68,97.38,70.21,94.89z"/>
		<path class="st57" d="M74.75,98.72c-0.51-1.4-1.02-2.8-1.54-4.19c2.33,0.32,4.67,0.63,7,0.95c0.21,3.8-5.26-0.94-4.82,3.21
			C75.19,98.98,74.97,98.99,74.75,98.72z"/>
		<path class="st58" d="M85.99,48.12c1.23-0.26,2.46-0.51,3.69-0.77c0.21-0.95,0.89-1.54,1.74-1.76c5.03-1.27,9.86-3.28,14.98-4.21
			c1.14-0.21,2.21,0.07,3.26,0.48c-3.19,4.32-6.38,8.64-9.56,12.97c-0.16-0.05-0.33-0.06-0.5-0.06c-5.08,0.02-9.05-2.8-13.18-5.19
			c-0.21-0.23-0.41-0.47-0.62-0.7c-0.21-0.23-0.26-0.42-0.13-0.57C85.79,48.18,85.89,48.12,85.99,48.12z"/>
		<path class="st59" d="M86.42,49.58c4.39,1.73,8.79,3.46,13.18,5.19c-2.84,3.29-5.69,6.59-8.54,9.88
			C89.52,59.63,87.97,54.6,86.42,49.58z"/>
		<path class="st60" d="M109.67,41.85c-6.66,1.83-13.32,3.66-19.98,5.49c-0.8-0.09-1.6-0.17-4.07-0.44
			c6.31-2.77,7.09-10.1,13.89-10.16c3.44,1.65,6.88,3.31,10.32,4.96C109.83,41.7,109.67,41.85,109.67,41.85z"/>
		<path class="st61" d="M53.4,80.13c0.42,2.18,0.85,4.36,1.27,6.55c-0.16,1.9-0.33,3.8-0.53,6.13c-2.64-0.48-4.76-0.87-6.88-1.26
			c-2.79-4.62-7.76-3.4-11.88-4.44c-1.05-0.34-2.1-0.68-3.15-1.02c2.86-4.38,8.04-2.56,11.84-4.43
			C47.14,80.92,50.15,79.82,53.4,80.13z"/>
		<path class="st62" d="M28.47,80.13c-1.29-2.34-5.64-2-5.15-5.9c1.08-1.76,2.99-2.07,4.72-2.6c3.79-1.17,7.66-2.12,9.08-6.59
			c0.22-0.68,0.99-1.07,1.74-1.26c2.34-0.19,4.42,0.68,6.49,1.58c1.74,2.14-0.03,3.29-1.35,4.5c-1.27,1.16-3.1,1.47-4.89,3.16
			c-0.41,0.36,0.79,1.74-0.23,2.56c-2.23,2.36-4.46,4.73-6.78,7.19C30.61,81.69,29.54,80.91,28.47,80.13z"/>
		<path class="st63" d="M38.88,75.58c-0.63-0.81-1.25-1.62-1.89-2.45c2.07-3.38,7.73-2.46,8.67-7.21c2.43-1.03,4.54-0.91,5.98,1.64
			c0.48,3.72,0.97,7.44,1.45,11.16c-0.12,1.34-0.82,1.1-1.62,0.59C47.28,78.08,43.08,76.83,38.88,75.58z"/>
		<path class="st64" d="M51.48,79.32c0.54-0.2,1.08-0.39,1.62-0.59c0.1,0.46,0.2,0.93,0.3,1.39c-3.11,0.51-6.22,1.02-9.34,1.52
			C46.54,80.88,49.01,80.1,51.48,79.32z"/>
		<path class="st65" d="M21.2,58.72c-0.02-0.3-0.03-0.6-0.05-0.9c1.67-3.51,3.33-7.02,5-10.53c1.52-2.51,3.04-5.03,4.55-7.54
			c4.79,1.61,7.98,5.1,10.71,9.14c-0.03,0.6-0.34,1.04-0.79,1.4c-4.82,3.41-10.29,5.6-15.53,8.23
			C23.88,59.14,22.53,59.38,21.2,58.72z"/>
		<path class="st66" d="M41.16,48.82c-3.49-3.02-6.97-6.05-10.46-9.07c-0.75-0.71-1.51-1.42-2.26-2.14
			c-0.53-0.52-1.06-1.04-1.6-1.55c0.08-0.29,0.17-0.57,0.25-0.86c7.43,1.05,14.86,2.11,22.3,3.16c1.2,0.72,2.4,1.45,3.6,2.17
			c-2.62,4.13-7.01,5.99-10.87,8.53C41.77,49.14,41.44,49.06,41.16,48.82z"/>
		<path class="st67" d="M74.75,98.72c0.21-0.04,0.43-0.05,0.64-0.03c0.79,0.27,1.58,0.54,2.83,0.96c-1.95,2.52-3.48,4.51-5.01,6.49
			c-0.71-0.48-1.41-0.95-2.12-1.43c-3.5-1.05-7-2.09-10.51-3.14c-1.36-0.94-1.99-3.5-4.45-2.03c0-1.03-0.01-2.06-0.01-3.09
			c0.93-0.21,1.87-0.41,2.8-0.62c1.75,1.25,3.06,3.31,4.74,3.15c2.21-0.32,1.79-2.53,3.46-2.33c0.31,0.39,0.62,0.78,0.92,1.17
			c1.29,1.38,1.23,3.64,3.07,4.66C72.33,101.22,73.54,99.97,74.75,98.72z"/>
		<path class="st4" d="M21.2,58.72c6.38-3.02,12.76-6.04,19.14-9.06c2.24,4.88,0.58,9.46-1.11,14.03c-3.65,1.78-6.9,0.73-10-1.41
			C26.55,61.09,23.87,59.91,21.2,58.72z"/>
		<path class="st48" d="M29.22,62.27c3.19,0.4,6.38,0.8,9.57,1.2c0.21,0.14,0.3,0.3,0.27,0.48c-0.03,0.19-0.08,0.29-0.14,0.29
			c-0.93,1.83-1.85,3.66-2.98,5.88c-4.01,1.3-8.31,2.7-12.62,4.11c-0.34-0.11-0.68-0.23-1.07-0.36c0.08-0.39,0.15-0.74,0.21-1.09
			c1.34-2.03,2.69-4.06,4.03-6.08C27.41,65.23,28.31,63.75,29.22,62.27z"/>
		<path class="st68" d="M37.48,28.72c-3.04,1.52-6.09,3.05-9.13,4.57c-2.46-2.78-4.91-5.56-7.37-8.34
			C26.48,26.2,31.98,27.46,37.48,28.72z"/>
		<path class="st69" d="M65.74,68.95c-0.95-5.73-1.89-11.45-2.84-17.18c-0.77-0.86-0.79-1.7,0.08-2.5
			c5.91-0.23,11.82-0.07,17.74-0.06c0.97,0,2.84-0.7,2.21,1.65C77.19,56.89,71.46,62.92,65.74,68.95z"/>
		<path class="st70" d="M82.92,50.85c-6.53-3.04-13.43-0.47-20.1-1.32c-0.24-0.2-0.37-0.46-0.4-0.76c0.05-0.31,0.19-0.55,0.45-0.73
			c7.22,0,14.43-0.01,21.65-0.01c0.49,0.03,0.99,0.06,1.48,0.08c-0.06,0.25-0.12,0.51-0.19,0.76C84.84,49.54,83.88,50.2,82.92,50.85
			z"/>
		<path class="st48" d="M38.92,64.25c-0.04-0.26-0.09-0.51-0.13-0.77c0.51-4.61,1.03-9.21,1.54-13.82c0.27-0.28,0.55-0.56,0.82-0.84
			c0.25-0.11,0.51-0.23,0.76-0.34c4.19-1.53,8.48-1.16,12.77-0.69c0.66,0.28,1.43,0.46,1.47,1.65c-3.03,2.33-6.88,0.45-10.6,1.6
			c4.42,5.1,9.64,8.9,14.25,13.31c1.43,1.37,3.09,2.51,3.48,4.65c-3.88-0.48-7.76-0.96-11.64-1.44c-2-0.55-3.99-1.09-5.99-1.64
			C43.42,65.37,41.17,64.81,38.92,64.25z"/>
		<path class="st71" d="M63.29,69.01c-6.81-6.18-13.61-12.36-21.05-19.11c5.25-0.36,9.56-0.65,13.86-0.95
			c2.23-1.99,4.44-1.94,6.62,0.08c-0.08,0.19-0.05,0.35,0.1,0.49c0.03,0.75,0.05,1.49,0.08,2.24
			C63.03,57.52,63.16,63.27,63.29,69.01z"/>
		<path class="st72" d="M62.72,49.04c-2.21-0.03-4.41-0.06-6.62-0.08c-4.73-0.16-9.46-0.31-14.18-0.47
			c3.69-2.65,7.39-5.3,11.08-7.95c2.72-1.74,5.45-3.48,8.17-5.22c0.56,4.24,1.13,8.48,1.7,12.72
			C62.82,48.38,62.77,48.71,62.72,49.04z"/>
		<path class="st73" d="M67.12,96.64c-0.26,1.29-0.52,2.58-0.83,4.15c-3.06-0.87-6.72-0.54-7.37-4.97
			C61.58,96.8,64.78,92.41,67.12,96.64z"/>
		<path class="st74" d="M71.11,102.47c-0.94-0.12-1.88-0.24-3.07-0.4c0-1.58,0-2.92,0-4.26c0.72-0.97,1.45-1.95,2.17-2.92
			C70.51,97.42,70.81,99.95,71.11,102.47z"/>
	</g>
</g>
<g>
	<g>
		<path class="st0" d="M445.48,122.39c0-6.24,0-12.49,0-18.76c22.5,0,45.01,0,67.55,0c0,6.24,0,12.49,0,18.76
			C490.53,122.39,468.02,122.39,445.48,122.39z"/>
		<path d="M471.59,120.05c-3.14,0.36-5.67-0.99-7.35-3.87c-1.26-2.16-1.01-5.3,0.83-6.99c2.73-2.51,5.91-3.77,9.74-2.51
			c4.03,1.33,5.84,3.96,5.3,7.84c-0.43,3.14-3.56,5.45-7.49,5.53C472.37,120.06,472.13,120.05,471.59,120.05z"/>
		<path d="M461.84,117.9c-2.27,3.17-5.53,3.68-9.39,1.83c-2.77-1.33-4.46-5.13-3.71-8.2c0.77-3.19,2.87-4.97,6.12-5.41
			c1.33-0.18,2.71-0.07,4.07-0.07c1.76-0.01,2.05,0.98,1.66,2.59c-1.38-0.07-2.81-0.21-4.24-0.2c-3.02,0.02-5.08,1.81-5.17,4.4
			c-0.1,2.53,2.23,5.23,4.82,5.45C457.94,118.44,459.88,118.38,461.84,117.9z"/>
		<path d="M496.08,119.91c-5.52,1.32-5.77-4.26-9.14-5.61c-0.94,1.41-0.57,2.84-0.39,4.21c0.14,1.06-0.22,1.65-1.34,1.65
			c-1.07,0-1.49-0.5-1.37-1.61c0.42-3.94,0.34-7.9-0.15-11.99c1.89-0.94,3.86-0.55,5.76-0.4c1.52,0.12,2.96,0.68,3.41,2.33
			c0.4,1.48,0.15,2.87-1.17,3.91c-0.47,0.37-1.1,0.59-1.17,1.59C491.69,116.11,493.48,118.03,496.08,119.91z"/>
		<path d="M498.04,106.35c2.38-0.74,4.42-0.22,6.4,0.39c3.01,0.93,3.54,3.49,1.3,5.74c-1.05,1.06-2.17,1.78-3.78,1.99
			c-2.2,0.28-2.35,0.65-2.18,2.86c0.04,0.59,0.28,1.18,0.26,1.76c-0.04,0.78-0.66,0.89-1.61,0.79
			C498.25,115.47,498.84,110.98,498.04,106.35z"/>
		<path d="M509.18,120.49c-0.74-0.38-1.66-0.65-1.4-1.75c0.15-0.6,0.57-1.11,1.27-1.02c0.96,0.12,1.55,0.72,1.37,1.71
			C510.32,120.03,509.9,120.47,509.18,120.49z"/>
		<path class="st0" d="M471.84,107.73c3.69-0.32,5.9,2.85,6.18,5.84c0.29,3.03-2.61,5.49-6.03,5.4c-3.49-0.09-5.96-2.62-5.9-6.05
			C466.16,109.7,468.35,107.72,471.84,107.73z"/>
		<path class="st0" d="M490.22,110.07c0.02,1.27-1.2,2.49-2.53,2.47c-1.33-0.02-1.51-0.98-1.57-1.97c-0.08-1.29,0.23-2.41,1.77-2.63
			C489.12,107.76,490.2,108.8,490.22,110.07z"/>
		<path class="st0" d="M499.46,110.41c0.03-1.96,0.94-2.76,3.03-2.68c1.74,0.07,3.29,1.37,3.29,2.75c0,1.36-1.89,2.71-3.79,2.71
			C500.27,113.2,499.43,112.28,499.46,110.41z"/>
	</g>
</g>
<g>
	<g>
		<path class="st0" d="M284.27,127.41c-52.58,0-105.15-0.04-157.73,0.09c-3.19,0.01-3.58-0.83-3.55-3.67
			c0.15-17.84,0.1-35.68,0.05-53.51c0-1.82-0.13-2.81,2.5-2.81c105.78,0.1,211.55,0.1,317.33,0.01c2.44,0,2.59,0.74,2.59,2.73
			c-0.08,18.21-0.11,36.42,0.03,54.62c0.02,2.33-0.63,2.59-2.74,2.59C389.92,127.39,337.1,127.41,284.27,127.41z"/>
		<path class="st75" d="M335.95,119.13c-2.63,0.17-5.81,0.29-9.38-0.15c4.49-6.92,4.2-14.71,5.27-22.09
			c1.05-7.17,4.28-14.35,1.42-22.09c3.21,0,6.56,0.07,9.91-0.03c1.86-0.05,2.61,1.03,3.27,2.45c4.28,9.11,8.6,18.2,12.87,27.31
			c0.36,0.77,0.41,1.8,1.52,1.81c1,0,0.9-1.07,1.16-1.66c4.01-9.07,8.04-18.14,11.86-27.29c0.78-1.88,1.54-2.77,3.68-2.64
			c2.96,0.18,5.94,0.05,8.04,0.05c0.61,15.19,3.31,29.66,6.79,44.21c-3.56,0-7.47,0-11.83,0c2.59-3.08,2.14-6.35,1.64-9.77
			c-1.27-8.74-2.3-17.51-3.43-26.29c-1.33,0.13-1.68,1.04-2.08,1.95c-4.68,10.79-9.43,21.56-14.05,32.38
			c-0.98,2.3-1.7,2.75-3.74,0.84c-4.05-3.8-5.38-9.02-7.77-13.67c-3.3-6.44-6.2-13.08-9.31-19.62c-0.35-0.75-0.94-1.39-2.06-3
			C338.94,94.76,334.63,106.41,335.95,119.13z"/>
		<path class="st76" d="M397.33,74.76c7.65,0.23,14.56-0.04,21.52,0.37c5.24,0.3,10.13,0.64,14.68,3.7
			c7.6,5.12,10.85,12.24,9.44,20.9c-1.49,9.12-6.94,15.43-16.18,18.38c-9.5,3.03-19.19,1.47-29.51,1.96
			c3.34-4.09,2.58-8.44,2.6-12.64c0.05-7.37,0.02-14.74,0.01-22.11C399.88,81.82,400.36,78.21,397.33,74.76z"/>
		<path class="st77" d="M249.6,120.02c-1.15,0-3.15-0.15-5.11,0.04c-2.73,0.26-4.35-0.46-3.77-4.12c-6.65,5.17-13.66,6.07-21.1,4.16
			c-7.71-1.98-11.2-6.35-11.35-14.29c-0.13-6.88-0.1-13.77-0.06-20.66c0.02-3.54,0.38-7.11-2.86-10.25c4.71,0,8.77,0,13.47,0
			c-3.19,2.9-2.91,6.37-2.92,9.74c-0.02,6.64-0.1,13.28,0.1,19.92c0.18,5.84,2.67,9.26,7.78,10.79c5.36,1.6,10.32,0.74,14.45-3.24
			c1.57-1.51,2.39-3.35,2.38-5.59c-0.04-8.48-0.06-16.97,0.02-25.45c0.02-2.38-1.09-4.16-2.85-6.13c4.46,0,8.5,0,11.9,0
			C247.72,89.8,247.94,104.63,249.6,120.02z"/>
		<path class="st78" d="M209.78,119.53c-6.91,1.38-12.27,0.31-16.7-4.7c-5.07-5.73-9.97-11.54-14.22-18.21
			c2.26-0.84,4.36-1.53,6.38-2.4c4.35-1.86,6.41-5.37,5.56-9.27c-0.68-3.15-4.03-5.37-8.33-5.53c-5.71-0.21-5.71-0.21-5.71,5.52
			c0,8.24,0.01,16.49-0.01,24.73c-0.01,3.41-0.32,6.87,2.68,10.01c-4.53,0-8.44,0-12.69,0c3.5-5.01,1.87-10.6,2.06-15.95
			c0.23-6.39,0.05-12.8,0.05-19.19c0-3.28,0.43-6.64-2.68-9.8c8.66,0.19,16.6-0.77,24.46,1.01c4.5,1.02,8.29,5.19,8.77,9.01
			c0.7,5.58-2.83,8.97-7.99,11.52c-3.8,1.87-3.89,1.6-1.13,4.88C195.96,107.9,201.63,114.63,209.78,119.53z"/>
		<path class="st78" d="M286.36,82.51c-4.78-2.45-9.08-4.29-14.01-3.73c-2.03,0.23-3.91,0.8-5.59,1.88
			c-3.06,1.96-3.44,5.69-0.73,8.12c2.78,2.5,6.26,3.95,9.7,5.22c3.5,1.29,6.89,2.76,10.03,4.69c5.81,3.55,6.83,10,2.45,15.16
			c-3.99,4.71-9.34,6.68-15.4,7.07c-4.74,0.31-9.43-0.29-14.1-0.98c-1.53-0.23-2.74-0.86-3.04-2.66c-0.32-1.9-0.92-3.75-1.54-6.16
			c3.75,1.4,6.84,3.17,10.3,3.95c4.87,1.1,9.59,1.15,14.2-0.99c4.19-1.94,4.97-6.42,1.61-9.6c-2.3-2.17-5.37-3-8.16-4.3
			c-3.92-1.82-8.07-3.18-11.66-5.68c-7.2-5.02-6.81-13.89,1.02-17.85c7.48-3.79,15.43-3.06,23.36-1.63c1.2,0.22,1.57,1.05,1.56,2.16
			C286.35,78.75,286.36,80.33,286.36,82.51z"/>
		<path class="st78" d="M289.08,81.93c0.71-2.67,1.19-4.41,1.62-6.16c0.39-1.59,1.6-1.63,2.91-1.63
			c10.84,0.02,21.68,0.01,32.52,0.06c0.87,0,2.46-0.5,2.37,0.91c-0.13,1.91-0.57,3.88-1.67,5.59c-0.85,1.32-1.43,0.14-2.07-0.16
			c-3.46-1.62-7.12-0.74-10.69-0.84c-1.62-0.05-1.52,1.31-1.51,2.42c0.04,9.96,0.08,19.93,0.13,29.89c0.01,2.79,0.68,5.34,3.35,7.68
			c-4.75,0-8.93,0-13.61,0c2.38-2.59,2.46-5.48,2.45-8.43c-0.04-9.47-0.11-18.95,0.05-28.42c0.04-2.64-0.81-3.39-3.39-3.27
			C297.57,79.78,293.54,79.34,289.08,81.93z"/>
		<path class="st78" d="M163.16,81.55c-3.88-2.83-8.12-1.68-12.16-1.9c-1.59-0.09-1.75,0.91-1.75,2.15
			c0.05,10.58,0.07,21.15,0.12,31.73c0.01,2.44,1.44,4.3,3.33,6.34c-4.76,0-8.95,0-13.61,0c2.75-3.12,2.69-6.63,2.66-10.18
			c-0.08-8.98-0.11-17.96,0.03-26.93c0.04-2.46-0.75-3.28-3.18-3.15c-3.47,0.19-6.97-0.25-10.33,1.09c-2.24,0.89-2.23-0.3-1.82-1.97
			c0.82-3.35,2.41-4.83,6.36-4.66c9.57,0.4,19.18,0.27,28.77,0.05c3.4-0.08,4.6,0.61,3.01,3.9C164.11,79,163.76,80.05,163.16,81.55z
			"/>
		<path class="st79" d="M407.39,97.47c0-4.54,0.2-9.1-0.07-13.63c-0.18-2.93,0.98-3.67,3.7-4.05c4.26-0.6,8.44,0.22,12.54,0.65
			c5.71,0.6,10.58,7.25,11.33,13.57c1.98,16.8-13.04,22.05-25.27,20.55c-1.89-0.23-2.3-1.36-2.26-3.09
			C407.45,106.81,407.39,102.14,407.39,97.47z"/>
	</g>
</g>
<g>
	<g>
		<ellipse class="st80" cx="308.79" cy="138.5" rx="275.77" ry="10.61"/>
		<path class="st81" d="M283.72,136.72c-0.21-1.09,0.58-2.38-1.34-3.57c4.93,0,9.24-0.01,13.55,0.03c0.18,0,0.54,0.66,0.49,0.72
			c-0.27,0.28-0.93,0.68-0.96,0.65c-0.75-0.87-1.76-0.69-2.71-0.68c-1.81,0.03-2.05,0.35-2.12,2.77c1.58,0,3.16,0,4.68,0
			c0.18,0.31,0.39,0.51,0.38,0.7c-0.09,1.39-0.52,1.79-1.59,1.51c-0.78-0.2-1.53-0.5-2.31-0.69c-0.33-0.08-0.71,0.03-1.32,0.06
			c0,0.94,0,1.86,0,2.78c0.44,0.48,0.45,0.95,0,1.43c-0.62,0-1.24,0-2.16,0c-0.03-1.36-0.07-2.74-0.09-4.12
			c-0.02-1.41,0-2.82,0-4.67c-0.84,0.42-1.6,0.58-1.87,1.01c-0.34,0.54-0.34,1.31-0.36,1.98c-0.09,3.83-0.08,3.83,0.8,5.6
			c-0.5,0.07-0.93,0.16-1.37,0.18c-0.48,0.03-0.96,0.01-1.7,0.01c0-1.25,0-2.41,0-3.57C283.1,138.14,283.1,137.43,283.72,136.72z"/>
		<path class="st82" d="M129.51,132.43c1.05-1.46,2.61-0.54,3.9-0.65c0.83-0.07,1.77,0.41,2.56,0.82c0.26,0.13,0.19,0.83,0.28,1.26
			c-1.36,2.13,0.51,4.74-1.14,6.83c-1.65,1.34-3.44,1.89-5.52,0.95c-0.45-0.29-0.89-0.59-1.32-0.9c-0.34-0.39-0.69-0.77-0.96-1.21
			C125.66,136.49,128.47,134.71,129.51,132.43z"/>
		<path class="st83" d="M279.97,138.86c0.18,1.1-0.51,2.36,0.93,3.41c-1.4,0-2.57,0-3.77,0c1.12-2.34,0.36-4.79,0.57-7.16
			c0.01-0.17-0.27-0.52-0.38-0.51c-0.61,0.08-1.25,0.44-1.79,0.32c-0.64-0.15-1.16-0.9-1.79-0.98c-0.36-0.05-1.17,0.69-1.21,1.12
			c-0.14,1.78-0.1,3.57-0.03,5.35c0.02,0.61,0.32,1.21,0.52,1.91c-1,0-2.09,0-3.19,0c0.12-0.83,0.33-1.76,0.39-2.69
			c0.07-1.19,0.02-2.38,0.02-3.57c0-0.12-0.03-1.88-0.05-1.89c-0.98-0.68-1.82-0.45-2.55,0.38c-0.23,0.27-0.46,0.54-1.02,1.19
			c-0.07-1.11-0.11-1.76-0.15-2.51c4.78,0,9.36,0,14.02,0c-0.17,0.56-0.41,1.12-0.5,1.7c-0.09,0.58-0.02,1.19-0.02,1.78
			C280.58,137.43,280.58,138.14,279.97,138.86z"/>
		<path class="st84" d="M331.15,138.19c-1.41-1.64,1.41-3.17-0.48-5.05c3.97,0,7.67-0.02,11.36,0.04c0.28,0,0.55,0.53,0.82,0.82
			c-0.37,0.19-0.78,0.59-1.1,0.54c-1.25-0.21-2.48-0.56-3.96-0.92c0,1.15,0,2.03,0,3.04c1.09,0,2.17,0,3.41,0c0,0.77,0,1.41,0,1.93
			c-1.13-0.19-2.22-0.37-3.47-0.57c0,1.29,0,2.33,0,3.38c2.96,0.42,2.96,0.42,4.97-1.3c0.07,0.82,0.12,1.46,0.18,2.23
			c-2.75,0-5.34,0-8.02,0c0.96-2.35,0.34-4.85,0.47-7.32c0.01-0.25-0.45-0.53-0.7-0.77c-0.66-0.65-1.33-0.52-1.48,0.38
			C332.89,136.12,332.31,137.36,331.15,138.19z"/>
		<path class="st85" d="M414.35,133.14c1.36,0,2.74,0.04,4.11-0.02c0.8-0.04,1.47,0.66,1.93,0.63c1.45-0.08,0.86,1.24,1.49,1.66
			c0.13,0.09-0.16,0.94-0.44,1.3c-0.54,0.67-1.22,1.23-1.83,1.83c1.02,0.97,2.28,2.16,4.03,3.83c-2.25-0.01-3.8,0.58-4.48-1.58
			c-0.24-0.76-1.18-1.32-2.08-2.26c0,1.47,0,2.51,0,3.78c-0.79,0.04-1.47,0.08-2.25,0.12C414.45,139.24,415.14,136.15,414.35,133.14
			z"/>
		<path class="st86" d="M424.45,142.31c0-1.65,0.1-3.19-0.03-4.71c-0.13-1.42,0.72-2.97-1.1-4.45c3.28,0,6-0.02,8.71,0.04
			c0.23,0.01,0.44,0.63,0.65,0.97c-0.3,0.14-0.77,0.47-0.88,0.38c-0.81-0.64-1.71-0.73-2.71-0.7c-1.95,0.07-2.11,0.22-2.34,2.84
			c1.68,0,3.37,0,5.08,0c0.05,0.59,0.07,0.93,0.1,1.27c0.08,0.83-0.43,1.05-1.13,0.87c-0.55-0.14-1.03-0.6-1.57-0.66
			c-1.72-0.18-2.33,0.38-2.53,2.1c-0.04,0.35-0.01,0.71-0.01,1.33c2.21-0.05,4.54,0.92,6.55-1.55c0.09,0.87,0.16,1.5,0.24,2.26
			C430.49,142.31,427.66,142.31,424.45,142.31z"/>
		<path class="st84" d="M220.84,142.43c-0.37,0-0.75,0-1.12,0c0.01-0.25,0.03-0.5,0.04-0.76c0.11-2.22,0.32-4.44,0.26-6.65
			c-0.01-0.53-0.91-1.03-1.69-1.85c3.25,0.14,6.26-0.71,9.09,0.89c0.6,1.99,0.06,3.5-2.48,4.39c1.47,1.4,2.73,2.59,4.08,3.88
			c-1.63,0.09-3.29,0.66-3.72-1.66c-0.13-0.68-1.88-0.14-1.53-1.49c0.01-0.03-0.65-0.35-0.92-0.28c-0.22,0.06-0.49,0.5-0.48,0.76
			c0.02,0.67,0.2,1.34,0.3,2.01c0.04,0.25,0.03,0.5,0.05,0.76c-0.37,0-0.75,0-1.12,0c-0.83-2.75-0.11-5.57-0.37-7.85
			C220.94,136.86,221.67,139.68,220.84,142.43z"/>
		<path class="st87" d="M160.52,142.43c1.65-1.42,2.52-2.6,3.1-4.19c0.66-1.82,2.08-3.39,2.61-5.34c0.06-0.21,0.52-0.38,0.82-0.45
			c0.17-0.04,0.55,0.16,0.58,0.29c0.55,2.73,2,5.12,3.05,7.65c0.24,0.58,0.35,1.21,0.55,1.9c-0.73,0-1.56,0-2.61,0
			c-0.08-0.73-0.19-1.61-0.29-2.49c-0.76-0.68-3.84-0.17-4.27,0.76c-0.23,0.49-0.16,1.11-0.31,1.65c-0.03,0.11-0.41,0.18-0.63,0.19
			C162.41,142.45,161.71,142.43,160.52,142.43z"/>
		<path class="st81" d="M373.54,135.29c-0.01,1.09-2.15,1.4-1.32,2.5c0.43,0.58,1.2,1.06,1.76,1.73c0.85,1.02,2.11,1.74,3.41,2.74
			c-0.78,0.06-1.46,0.04-2.11,0.18c-1.21,0.26-1.53-0.39-2.04-1.29c-0.51-0.9-1.52-1.54-2.53-2.5c-0.07,0.73-0.13,1.27-0.16,1.81
			c-0.02,0.57-0.01,1.15-0.01,1.84c-0.96,0-1.79,0-2.88,0c-0.03-0.42-0.34-1.16-0.07-1.48c1.39-1.71,0.55-3.62,0.63-5.42
			c0.03-0.64-0.83-1.32-1.35-2.08c1.34,0,2.75,0,4.14,0c-0.37,1.04-0.84,2.15-0.23,3.34C371.77,136.24,372.16,134.86,373.54,135.29z
			"/>
		<path class="st88" d="M244.79,134.57c0.73-0.71,1.34-1.81,2.21-2.05c1.25-0.35,2.77-0.36,4.01,0c0.94,0.27,1.7,1.3,2.38,2.11
			c0.32,0.39,0.32,1.05,0.37,1.6c0.06,0.7,0.03,1.41,0.01,2.12c-0.05,2.36-1.81,4.06-4.28,4.08c-1.41,0.01-2.82,0.13-4.16-0.66
			c-0.76-0.45-0.44-0.96-0.54-1.47C244.84,138.38,244.84,136.48,244.79,134.57z"/>
		<path class="st89" d="M179.75,135.72c-0.59,0.37-1.19,0.75-1.75,1.1c1.64,1.93,3.08,3.63,4.53,5.34
			c-1.53,0.73-2.53,0.27-3.49-1.29c-0.54-0.87-1.27-2.09-2.95-2.02c-0.17,1.15-0.57,2.27,0.85,3.43c-1.18,0.06-2.09,0.11-3,0.16
			c0.52-3.2,1.41-6.28-0.9-9.2c1.38,0,2.71,0,4.17,0c-0.42,0.8-0.9,1.59-1.25,2.44c-0.1,0.24,0.06,0.75,0.28,0.91
			c0.2,0.14,0.72,0.09,0.97-0.07c0.67-0.43,1.28-0.96,1.91-1.44C179.33,135.3,179.54,135.51,179.75,135.72z"/>
		<path class="st85" d="M406.48,133.86c0.33-0.38,0.66-0.76,0.99-1.14c1.18,0.91,1.04,0.98,2.05,2.92c1.13,2.17,2.55,4.2,4.04,6.61
			c-1.13,0.08-1.93,0.15-2.74,0.16c-0.2,0-0.57-0.21-0.57-0.33c-0.09-3.97-3.07-2.19-5.19-2.35c-0.05,0.8-0.09,1.6-0.15,2.55
			c-0.91,0-1.84,0-2.9,0c0.86-1.15,1.56-2.3,2.47-3.25c0.71-0.75,0.38-1.54,0.49-2.31C406.64,136.31,405.7,134.68,406.48,133.86z"/>
		<path class="st90" d="M152.03,133.14c3.25,0,6.22-0.02,9.19,0.02c0.41,0.01,0.82,0.28,1.23,0.43c-0.2,0.39-0.37,0.8-0.6,1.18
			c-0.12,0.2-0.34,0.34-0.43,0.42c-0.76-0.51-1.5-1.01-2.65-1.78c0,3.27,0,6.05,0,8.91c-1.32,0-2.4,0-3.75,0
			c1.34-2.09,1.54-4.35,1.46-6.68c-0.03-0.98-0.59-1.56-1.41-1.75c-0.78-0.19-1.81-0.27-1.71,1.09c0.01,0.08-0.66,0.34-0.92,0.26
			c-0.22-0.07-0.39-0.5-0.45-0.8C151.92,134.12,152,133.77,152.03,133.14z"/>
		<path class="st91" d="M258.26,138.14c0,1.3,0,2.6,0,4.14c-0.89,0.05-1.81,0.11-2.99,0.18c0-1.63,0.11-3.14-0.03-4.64
			c-0.14-1.44,0.76-3.06-1.03-4.61c1.73-0.03,3.16-0.07,4.58-0.08c1.36-0.01,2.72-0.05,4.08,0.04c0.24,0.02,0.42,0.64,0.63,0.98
			c-0.3,0.14-0.78,0.46-0.88,0.38c-1.26-1.07-2.71-0.64-4.36-0.62c0,0.97,0,1.88,0,2.8C258.71,137.19,258.71,137.67,258.26,138.14z"
			/>
		<path class="st85" d="M323.39,138.14c1.15,0.17,1.92-0.37,2.22-1.35c0.44-1.43-0.31-2.47-1.84-3.49c1.56,0,2.73,0,3.93,0
			c0.5,1.01-0.32,2.38,0.93,3.2c-0.4,1.99,1.04,1.67,2.25,1.64c-0.2,0.99,0.48,2.12-0.5,2.96c-0.46,0.4,0.05,1.61-1.19,1.32
			c-0.88-0.21-0.35-0.97-0.57-1.43c-0.48-0.99-1.08-1.93-1.51-2.69c-2.26,0-0.69,2.3-2.21,2.7
			C323.6,140.42,322.91,139.56,323.39,138.14z"/>
		<path class="st91" d="M353.53,142.35c-1.32,0-2.15,0-3.23,0c0-2.85,0-5.63,0-8.91c-1.16,0.75-1.9,1.24-2.81,1.83
			c-0.06-0.61-0.12-1.23-0.19-2c3.07,0,5.98,0,9.29,0c-0.53,0.85-0.9,1.46-1.31,2.13c-0.38-0.62-0.67-1.08-0.95-1.53
			c-0.58,0.36-1.68,0.76-1.66,1.09c0.16,2.3-0.74,4.67,0.43,6.9C353.14,141.94,353.24,142.01,353.53,142.35z"/>
		<path class="st88" d="M452.14,138.14c0.29,1.31-0.68,2.83,0.93,4.12c-1.37,0-2.54,0-3.63,0c0.46-3.03,1.4-6.11-0.97-9.02
			c2.9,0,5.73,0,8.8,0c0.04,0.54,0.08,1.18,0.14,2.07c-0.99-0.58-1.68-1.19-2.48-1.41c-0.79-0.22-1.69-0.05-2.79-0.05
			c0,1.03,0,1.94,0,2.86C452.59,137.19,452.59,137.67,452.14,138.14z"/>
		<path class="st92" d="M306.92,136c0.27,1.34-0.26,2.62-1.12,3.45c-0.94,0.9-0.98,2.02-1.44,3.14c-2-0.65-2.46-2.11-2.67-3.73
			c-1.66-1.38-3.66-2.54-3.74-5c-0.2-0.17-0.4-0.33-0.6-0.5c1.08-0.07,2.24-0.41,3.21-0.13c0.9,0.25,0.97,1.36,1.25,2.28
			c0.44,1.42,1.62,2.64,2.48,3.93C305.39,138.52,305.06,136.48,306.92,136z"/>
		<path class="st93" d="M187.15,142.43c-0.62,0-1.24,0-2.09,0c-0.56-2.99,0.35-6.14-0.58-9.29c2.55,0,5.26-0.02,7.97,0.04
			c0.24,0.01,0.46,0.61,0.69,0.94c-0.29,0.15-0.74,0.5-0.84,0.42c-1.52-1.13-3.25-0.51-5.15-0.75c0,1.08,0,2,0,2.92
			c0.44,0.48,0.44,0.95,0,1.43c0,1.19,0,2.38,0,3.57C187.66,141.95,187.66,142.19,187.15,142.43z"/>
		<path class="st94" d="M232.81,142.43c-0.62,0-1.24,0-2.09,0c-0.56-2.99,0.35-6.14-0.58-9.29c2.55,0,5.26-0.02,7.97,0.04
			c0.24,0.01,0.46,0.61,0.69,0.94c-0.29,0.15-0.74,0.5-0.84,0.42c-1.52-1.13-3.25-0.51-5.15-0.75c0,1.08,0,2,0,2.92
			c0.44,0.48,0.44,0.95,0,1.43c0,1.19,0,2.38,0,3.57C233.32,141.95,233.32,142.19,232.81,142.43z"/>
		<path class="st95" d="M479.84,141.72c-2.18,1.22-4.84,0.96-5.94-0.8c-0.57-0.92-1.53-1.49-1.67-2.91
			c-0.28-2.82,1.75-4.04,3.45-5.36c0.71-0.56,2.46-0.83,3.42,0.5c-0.03,0.16-0.07,0.32-0.1,0.48c-2.78,3.9-2.73,4.49,0.68,7.63
			C479.73,141.41,479.78,141.56,479.84,141.72z"/>
		<path class="st96" d="M115,133.23c1.58,0,2.66,0,3.81,0c0.15,0.63,0.16,1.36,0.49,1.91c0.36,0.59,0.98,1.08,1.57,1.5
			c0.19,0.14,0.78,0.06,0.96-0.13c0.79-0.81,1.25-0.1,0.88,0.35c-1.38,1.7-0.22,3.65-0.88,5.48c-0.79,0-1.62,0-2.63,0
			c1.25-2.5,0.6-4.66-1.48-6.51C116.91,135.09,116.14,134.31,115,133.23z"/>
		<path class="st97" d="M381.03,142.43c-0.61,0-1.22,0-2.05,0c-0.4-1.42-0.14-2.91-0.19-4.37c-0.04-1.4-0.01-2.8-0.01-4.2
			c-0.19-0.16-0.26-0.32-0.19-0.48c0.06-0.16,0.13-0.24,0.19-0.24c2.08,0,4.16,0,6.23,0c0.57,0,1.39-0.14,1.22,0.76
			c-0.25,1.33-0.68,0.03-1.04,0.02c-1.32-0.04-2.63-0.01-4.17-0.01c0,1,0,1.9,0,2.81c0.65,0.71,0.55,1.43,0,2.14
			c0,0.95,0,1.9,0,2.86C381.53,141.95,381.53,142.19,381.03,142.43z"/>
		<path class="st91" d="M483.73,133.24c1.35,0,2.68,0,4.26,0c-0.18,1.06-1.82,1.41-1.47,2.78c0.28,1.11-0.15,2.39,0.12,3.51
			c0.26,1.12,1.1,2.01,2.46,2.19c0.64,0.08,1.29,0.12,1.92,0.72c-0.95,0-1.9,0.03-2.84-0.01c-1.88-0.06-3.78-1.96-3.83-3.81
			c-0.03-1.18,0.06-2.36-0.03-3.53C484.26,134.49,483.95,133.91,483.73,133.24z"/>
		<path class="st98" d="M311.39,133.14c-2.39,3.1-1.43,6.09-1.05,9.17c-0.64,0-1.47,0-2.44,0c-0.05-0.17-0.18-0.48-0.23-0.8
			c-0.34-1.95,0.48-3.92-0.66-5.92c-0.74-1.28,0.36-2.34,2.03-2.45C309.76,133.11,310.48,133.14,311.39,133.14z"/>
		<path class="st99" d="M393.01,134.57c0.67-1.61,2.17-2,3.71-2.11c1.61-0.12,3.23-0.03,5.07-0.03c0.06,0.39,0.21,0.82,0.18,1.23
			c-0.05,0.55-0.08,1.43-0.39,1.56c-1.1,0.46-0.93-0.63-1.25-1.15c-0.9-1.45-2.42-0.89-3.7-0.89c-0.79,0-2.08,1.7-2.11,2.55
			c-0.04,1.07-0.05,2.14,0,3.21c0.07,1.52,1.37,2.71,3.04,2.77c0.96,0.04,1.91,0.01,2.86,0.27c-2.3,0.49-4.56,0.82-6.83-0.23
			c-0.85-0.39-0.46-0.95-0.57-1.46C393.05,138.38,393.05,136.48,393.01,134.57z"/>
		<path class="st100" d="M467.11,138.14c0,1.39,0,2.79,0,4.22c-0.83,0-1.42,0-2.09,0c-0.15-1.65,0.15-3.45-0.54-4.78
			c-0.84-1.61-2.53-2.82-3.87-4.24c1.19,0,2.57,0,4.25,0c0,0.66-0.18,1.51,0.06,2.22c0.16,0.48,0.93,0.77,1.43,1.14
			C467,137.01,467.51,137.36,467.11,138.14z"/>
		<path class="st100" d="M199.88,134.57c-0.09,0.44-0.03,0.99-0.28,1.3c-1.26,1.51-0.23,2.9,0.42,4.08
			c0.67,1.21,1.86,2.18,3.65,1.79c0.68-0.15,1.43-0.02,2.14,0.24c-1.72,0.67-3.53,0.59-5.23,0.39c-2.81-0.32-4.56-3.71-3.36-6.29
			c0.4-0.86,0.59-2.03,1.92-2.23C199.83,133.67,200.08,133.9,199.88,134.57z"/>
		<path class="st86" d="M128.76,140.29c0.25,0.24,0.5,0.48,0.75,0.71c0.19,0.66,0.03,0.98-0.75,0.71c-0.25,0-0.5,0-0.75,0
			c-0.24-0.25-0.49-0.49-0.75-0.71c-1.69-1.53-1.69-3.45-1.4-5.55c1.17-0.97,2.41-2,3.64-3.02c0.96,0,1.93,0,2.89,0
			c0.01,0.12,0.02,0.24,0.03,0.35c-0.78,0.29-1.61,0.5-2.33,0.89c-2.5,1.36-2.18,3.67-2.09,5.9
			C128.27,139.8,128.52,140.04,128.76,140.29z"/>
		<path class="st101" d="M211.85,136c0-0.48,0-0.95,0-1.43c0.26-0.23,0.51-0.46,0.75-0.71c0.33-0.38,0.66-0.75,1.09-1.25
			c0.42,0.55,0.81,1.26,1.39,1.79c0.88,0.8,0.17,1.84,0.55,2.62c0.86,1.76,1.92,3.43,2.98,5.28c-0.96,0-1.78,0-2.84,0
			c-0.94-0.54,0.8-2.27-0.93-2.73c-0.55-0.56-1.18-1.05-1.67-1.67C212.93,137.15,212.04,136.8,211.85,136z"/>
		<path class="st100" d="M360.07,133.86c0.09-0.44,0.02-1.1,0.3-1.28c0.55-0.35,0.84-0.07,1.26,0.59c1.58,2.47,2.59,5.17,3.68,7.83
			c0.44,0.48,0.45,0.95,0,1.43c-1.33,0.07-2.72,0.25-2.3-1.8c0.06-0.3-0.45-0.7-0.7-1.06c-0.57-0.57-1.22-1.08-1.7-1.73
			c-0.19-0.44-0.28-0.9-0.4-1.36C360.15,135.61,359.23,134.78,360.07,133.86z"/>
		<path class="st92" d="M140.74,141.72c-1.83-1.1-1.51-2.87-1.48-4.52c0.02-1.44,0.07-2.84-2.1-3.86c2,0,3.4,0,4.94,0
			c-0.91,1.13-0.58,2.47-0.6,3.77c-0.02,1.3-0.01,2.6-0.01,3.9C141.69,141.67,141.51,141.98,140.74,141.72z"/>
		<path class="st102" d="M323.39,138.14c0.34,0.44,0.74,0.85,0.99,1.33c0.25,0.47,0.34,1.01,0.5,1.52c-0.35,0.45-0.7,0.9-1.04,1.35
			c-0.4-0.5-0.99-0.94-1.17-1.5c-0.6-1.89-1.12-3.79-2.28-5.46c-0.46-0.66-0.91-1.31-1.47-2.12c1.13-0.05,2.29-0.1,3.51-0.16
			C322.77,134.87,323.08,136.51,323.39,138.14z"/>
		<path class="st103" d="M140.74,141.72c0.25-0.24,0.5-0.48,0.75-0.71c2.54,1.11,3.39,1.01,4.72-0.58c0.21-0.26,0.49-0.57,0.5-0.86
			c0.05-1.54,0.16-3.1-0.06-4.62c-0.07-0.47-1.07-0.82-2.25-1.66c2.08,0,3.25,0,4.5,0c-1.18,1.52-0.85,3.23-0.58,4.7
			c0.32,1.81-1.4,2.6-1.6,4.05c-0.01,0.1-0.14,0.25-0.23,0.25c-0.85,0.06-1.73,0.26-2.54,0.11
			C142.88,142.19,141.48,143.27,140.74,141.72z"/>
		<path class="st104" d="M297.94,133.86c0.7,0.27,1.6,0.48,1.05,1.47c-0.44,0.8,0.25,0.5,0.55,0.69c1.08,0.68,2.35,1.27,2.15,2.84
			c-0.39-0.22-0.78-0.44-1.17-0.65c-0.34,2.37-0.34,2.37,0.51,4.08c-1.01,0.06-1.91,0.11-3.08,0.18
			C297.94,139.5,297.94,136.68,297.94,133.86z"/>
		<path class="st105" d="M360.07,133.86c0.06,0.62-0.33,1.48,0.93,1.46c0.19,0,0.38,0.44,0.57,0.68c-0.54,0.48-0.53,0.95,0,1.43
			c1.44,0.33,0.46,1.44,0.75,2.14c-0.86,0-1.76-0.12-2.59,0.04c-0.64,0.13-1.72,0.61-1.73,0.94c-0.01,2.49-1.59,1.92-3.38,1.7
			c1.35-1.27,2.58-2.26,2.8-4.01c0.1-0.78,0.82-1.68,1.53-2.17C359.84,135.46,358.5,134.01,360.07,133.86z"/>
		<path class="st106" d="M438.67,134.57c1.47-2.21,3.53-2.6,5.98-1.76c0.04,0.01,0,0.22,0,0.34c-0.03,0.16-0.07,0.32-0.1,0.48
			c-3.02,4-2.98,4.48,0.68,7.62c0.06,0.15,0.11,0.31,0.17,0.46c-1.04,1.46-2.67,0.77-3.84,0.59c-1.03-0.16-2.55-0.56-2.9-2.02
			C438.71,138.38,438.71,136.48,438.67,134.57z"/>
		<path class="st94" d="M134.75,140.29c0-1.19-0.16-2.4,0.04-3.55c0.26-1.48-0.49-2.4-1.39-3.58c0.95,0.23,1.9,0.47,2.85,0.7
			c0.01,1.46,1.27,2.72,0.75,4.27c-0.25,0.72-0.5,1.44-0.75,2.16c-0.31,0.44-0.64,0.91-1.28,0.76
			C134.59,140.96,134.63,140.59,134.75,140.29z"/>
		<path class="st107" d="M479.09,133.14c2.78,0.18,2.98,0.33,2.98,2.7c0.01,1.8,0.25,3.62-0.71,5.35c-0.42,0.76-1,0.42-1.53,0.52
			C478.13,138.97,478,136.11,479.09,133.14z"/>
		<path class="st87" d="M199.88,134.57c-0.25-0.24-0.5-0.48-0.75-0.71c0.3-1.02,0.98-1.47,2.12-1.44c2.2,0.05,4.41,0.01,6.86,0.01
			c0,1.01,0.04,1.92-0.03,2.83c-0.02,0.26-0.31,0.66-0.53,0.7c-0.28,0.05-0.83-0.13-0.9-0.33c-0.5-1.38-1.24-2.26-2.94-2.54
			C201.96,132.8,201.11,134,199.88,134.57z"/>
		<path class="st106" d="M214.1,137.43c1.44,0.33,0.46,1.44,0.75,2.14c-1.11,0-2.22,0-3.58,0c-0.09,0.85-0.18,1.73-0.29,2.73
			c-0.9,0-1.82,0-3.07,0c1.16-1.65,2.2-3.08,3.17-4.54c0.17-0.25,0.02-0.69,0.02-1.05C212.34,136.06,212.97,137.68,214.1,137.43z"/>
		<path class="st85" d="M491.33,133.26c0.95,0,1.79,0,2.47,0c-0.18,0.81-0.43,1.52-0.47,2.24c-0.07,1.41,0.01,2.82-0.05,4.23
			c-0.01,0.2-0.46,0.52-0.71,0.52c-0.25,0-0.71-0.32-0.72-0.51c-0.06-1.41,0.02-2.82-0.05-4.23
			C491.76,134.79,491.51,134.07,491.33,133.26z"/>
		<path class="st108" d="M467.11,138.14c-0.25-0.48-0.5-0.95-0.75-1.43c2.07-0.44,1.28-2.18,1.58-3.43c1.26,0,2.43,0,3.78,0
			C470.08,135.02,468.6,136.58,467.11,138.14z"/>
		<path class="st109" d="M232.81,138.14c0-0.48,0-0.95,0-1.43c1.62-0.14,3.24-0.29,5.11-0.46c0.05,0.83,0.11,1.93,0.18,3.31
			C236.31,138.67,234.72,137.76,232.81,138.14z"/>
		<path class="st94" d="M448.4,136c0,0.82-0.12,1.67,0.03,2.47c0.2,1.02-0.38,1.73-0.78,2.53c-0.76,0.64-1.42,0.2-2.09-0.17
			c-0.28-0.25-0.52-0.54-0.72-0.85c-0.49-1.6-0.44-3.21-0.06-4.82c0.18-0.32,0.38-0.62,0.61-0.91c0.44-0.36,0.9-0.66,1.51-0.39
			c0.25,0.24,0.5,0.48,0.75,0.71C448.13,134.94,447.92,135.63,448.4,136z"/>
		<path class="st110" d="M381.03,138.86c0-0.71,0-1.43,0-2.14c1.62-0.14,3.35,0.34,5.1-0.51c0.05,0.9,0.12,1.98,0.19,3.21
			C384.49,139.02,382.92,137.13,381.03,138.86z"/>
		<path class="st111" d="M187.15,138.14c0-0.48,0-0.95,0-1.43c1.61-0.25,3.4,0.57,5.09-0.84c0.07,1.23,0.13,2.32,0.2,3.69
			C190.64,138.67,189.06,137.76,187.15,138.14z"/>
		<path class="st112" d="M406.48,133.86c0.08,0.68,0.03,1.41,0.3,2c0.16,0.35,0.75-1.12,1.16-0.12c0.37,0.9,0.48,1.89,0.72,2.95
			c-0.36,0.06-0.7,0.13-1.04,0.16c-1.21,0.11-2.27,0.07-1.94-1.59c0.03-0.14-0.46-0.37-0.71-0.55c0.25-0.79,0.46-1.59,0.77-2.36
			C405.85,134.14,406.23,134.02,406.48,133.86z"/>
		<path class="st113" d="M258.26,138.14c0-0.48,0-0.95,0-1.43c0.75,0,1.5,0.03,2.24-0.01c0.66-0.03,1.32-1.09,1.97,0.08
			c0.55,0.98,0.42,1.77-0.5,2.45c-0.1,0.07-0.18,0.17-0.37,0.35C260.76,138.59,259.79,137.73,258.26,138.14z"/>
		<path class="st113" d="M452.14,138.14c0-0.48,0-0.95,0-1.43c0.75,0,1.5,0.03,2.24-0.01c0.66-0.03,1.32-1.09,1.97,0.08
			c0.55,0.98,0.42,1.77-0.5,2.45c-0.1,0.07-0.18,0.17-0.37,0.35C454.64,138.59,453.66,137.73,452.14,138.14z"/>
		<ellipse class="st114" cx="281.84" cy="137.79" rx="2.65" ry="1.52"/>
		<path class="st115" d="M290.45,142.43c0-0.48,0-0.95,0-1.43c1.77,0.8,3.51,1.49,5.18-0.26c0.26-0.27,0.82-0.28,1.24-0.41
			c0.11,0.43,0.25,0.85,0.31,1.28c0.03,0.2-0.11,0.42-0.22,0.81C294.83,142.43,292.64,142.43,290.45,142.43z"/>
		<path class="st116" d="M438.67,134.57c0.25,0.19,0.71,0.36,0.72,0.56c0.06,1.53,0.06,3.07,0,4.6c-0.01,0.19-0.47,0.37-0.72,0.56
			C437.53,138.38,437.53,136.48,438.67,134.57z"/>
		<path class="st117" d="M393.01,134.57c0.25,0.19,0.71,0.36,0.72,0.56c0.06,1.53,0.06,3.07,0,4.6c-0.01,0.19-0.47,0.37-0.72,0.56
			C391.87,138.38,391.87,136.48,393.01,134.57z"/>
		<path class="st118" d="M134.75,140.29c0.23,0.14,0.46,0.4,0.68,0.39c0.28-0.02,0.55-0.25,0.82-0.39c-0.08,0.44-0.06,1.2-0.27,1.26
			c-2.26,0.65-4.56,1.27-6.96,0.75c-0.13-0.03-0.18-0.38-0.26-0.58c0.25-0.24,0.5-0.48,0.75-0.71
			C131.52,142.51,133.16,141.54,134.75,140.29z"/>
		<path class="st108" d="M187.15,142.43c0-0.24,0-0.48,0-0.71c0.74,0,1.49-0.08,2.22,0.02c1.33,0.17,2.37-0.19,3.2-1.21
			c0.17-0.21,0.63-0.19,1.22-0.35c0.05,0.78,0.08,1.42,0.13,2.26C191.54,142.43,189.34,142.43,187.15,142.43z"/>
		<path class="st106" d="M232.81,142.43c0-0.24,0-0.48,0-0.71c0.74,0,1.49-0.08,2.22,0.02c1.33,0.17,2.37-0.19,3.2-1.21
			c0.17-0.21,0.63-0.19,1.22-0.35c0.05,0.78,0.08,1.42,0.13,2.26C237.2,142.43,235.01,142.43,232.81,142.43z"/>
		<path class="st116" d="M244.79,134.57c0.25,0.19,0.71,0.36,0.72,0.56c0.06,1.53,0.06,3.07,0,4.6c-0.01,0.19-0.47,0.37-0.72,0.56
			C243.65,138.38,243.65,136.48,244.79,134.57z"/>
		<path class="st119" d="M214.1,137.43c-0.08,0.59,0.35,1.46-0.87,1.43c-0.69-0.02-1.49,0.17-1.39-0.94c0.04-0.51,0.22-1.2-0.73-1.2
			c0.25-0.24,0.5-0.48,0.75-0.71c0.35,0,0.71,0.05,1.06-0.01C214.24,135.78,214.12,136.64,214.1,137.43z"/>
		<path class="st120" d="M381.03,142.43c0-0.24,0-0.48,0-0.71c1.36,0,2.73,0.04,4.08-0.02c0.39-0.02,1.09-0.31,1.1-0.5
			c0.04-0.82,0.57-1.16,1.14-0.83c0.34,0.19,0.3,1.02,0.4,1.56c0.02,0.09-0.09,0.2-0.25,0.51
			C385.43,142.43,383.23,142.43,381.03,142.43z"/>
		<path class="st121" d="M220.84,142.43c0-2.82,0-5.63,0-8.45c0.9,2.79,0.67,5.63,0.75,8.45
			C221.34,142.43,221.09,142.43,220.84,142.43z"/>
		<path class="st122" d="M373.54,135.42c0-0.73,0-1.32,0-2.16c0.91-0.04,1.82-0.09,2.85-0.14c-0.07,0.33-0.05,0.58-0.15,0.64
			C375.37,134.33,374.49,134.85,373.54,135.42z"/>
		<path class="st101" d="M316.17,141.3c-0.34,0.57-0.54,1.1-0.66,1.09c-0.63-0.1-1.55,0.52-1.82-0.52
			c-0.06-0.24,0.24-0.82,0.37-0.83C314.69,141.04,315.32,141.18,316.17,141.3z"/>
		<path class="st106" d="M446.9,133.86c-0.25,0.24-0.5,0.48-0.75,0.71c-1.23,0.22-1.73-0.25-1.5-1.43
			C445.39,133.42,446.55,132.48,446.9,133.86z"/>
		<path class="st106" d="M446.15,140.29c0.06,1.07,0.93,0.61,1.5,0.71c-0.35,1.38-1.51,0.44-2.25,0.71
			C444.91,140.88,444.9,140.28,446.15,140.29z"/>
		<path class="st81" d="M365.31,142.43c0-0.48,0-0.95,0-1.43c0.21,0.08,0.47,0.11,0.61,0.25c0.28,0.29,0.5,0.64,0.74,0.96
			C366.21,142.29,365.76,142.36,365.31,142.43z"/>
		<path class="st88" d="M448.4,136c-1.12-0.06-0.64-0.89-0.75-1.43C448.77,134.63,448.29,135.46,448.4,136z"/>
		<path class="st119" d="M212.6,133.86c-0.25,0.24-0.5,0.48-0.75,0.71C212.1,134.34,212.35,134.1,212.6,133.86z"/>
		<path class="st122" d="M378.78,133.14c0,0.24,0,0.48,0,0.71c-0.21-0.16-0.41-0.32-0.62-0.48
			C378.37,133.3,378.58,133.22,378.78,133.14z"/>
		<path class="st118" d="M127.27,141c0.25,0.24,0.5,0.48,0.75,0.71C127.77,141.48,127.52,141.24,127.27,141z"/>
		<path class="st118" d="M128.76,140.29c-0.25-0.24-0.5-0.48-0.75-0.71C128.26,139.81,128.51,140.05,128.76,140.29z"/>
		<path class="st123" d="M416.96,134.12c0.31-0.16,0.42-0.26,0.51-0.25c1.85,0.18,2.27,0.58,2.51,1.74
			c0.32,1.54-1.36,0.91-1.83,1.66c-0.24,0.39-1.15,0.35-1.18-0.54C416.93,135.82,416.96,134.91,416.96,134.12z"/>
		<path class="st124" d="M222.4,137.41c0-1.29,0-2.31,0-3.58c0.99,0.09,1.94,0.05,2.77,0.33c0.38,0.13,0.68,0.88,0.75,1.39
			C226.02,136.25,224.19,137.22,222.4,137.41z"/>
		<path class="st125" d="M249.39,133.05c3.12,1.84,2.14,4.57,1.89,7c-0.06,0.55-0.33,2.18-2.09,1.71c-1.1-0.29-2.81-1.24-2.88-2.2
			c-0.1-1.41-0.08-2.83,0.01-4.25c0.02-0.38,0.4-0.85,0.75-1.09C247.73,133.79,248.49,133.49,249.39,133.05z"/>
		<path class="st80" d="M479.09,133.14c2.01,2.72,1.81,5.61,0.75,8.57c-1.44-0.03-2.71,0.03-4.01-1.17
			c-1.68-1.54-1.64-3.46-1.06-4.83C475.35,134.35,476.77,132.65,479.09,133.14z"/>
		<path class="st123" d="M361.57,137.43c-0.17,0.48-0.21,1.09-0.56,1.38c-0.25,0.22-1.14,0.18-1.31-0.04
			c-0.3-0.39-0.49-1.1-0.33-1.53c0.34-0.88,1.08-1.45,2.2-1.24C361.57,136.48,361.57,136.95,361.57,137.43z"/>
		<path class="st126" d="M446.15,140.29c-1.12,0.06-0.64,0.89-0.75,1.43c-0.73,0-1.47,0.03-2.2-0.01c-1.8-0.09-2.97-1.27-3.03-3.05
			c-0.02-0.47,0-0.93,0-1.4c0.01-3.2,0.7-3.84,4.49-4.12c0.5,0.48,1,0.95,1.5,1.43c0,0.24,0,0.48,0,0.71c0.58,1.43,0.58,2.86,0,4.29
			C446.15,139.81,446.15,140.05,446.15,140.29z"/>
		<path class="st106" d="M446.15,139.57c0-1.43,0-2.86,0-4.29C447.21,136.62,447.21,138.24,446.15,139.57z"/>
	</g>
</g>
<g>
	<g>
		<path class="st127" d="M390.99,129.06c-74.36,0-148.72,0-223.08,0c-0.04-0.37-0.08-0.74-0.11-1.12c-0.01-0.15-0.01-0.3-0.01-0.44
			c1.52-0.06,3.05-0.13,4.57-0.2c71.2,0.05,142.4,0.09,213.6,0.16c1.71,0,3.42,0.3,5.13,0.47
			C391.05,128.31,391.02,128.69,390.99,129.06z"/>
		<path class="st128" d="M147.72,129.13c-15.24,0.01-30.47,0.03-45.71,0.04c-0.01-0.37-0.03-0.75-0.04-1.13
			c15.22-0.02,30.43-0.05,45.65-0.07C147.66,128.36,147.69,128.74,147.72,129.13z"/>
		<path class="st128" d="M456.15,129.16c-14.99-0.02-29.97-0.03-44.96-0.05c0.03-0.38,0.07-0.76,0.1-1.14
			c14.97,0,29.94-0.01,44.92-0.01C456.19,128.36,456.17,128.76,456.15,129.16z"/>
		<path class="st129" d="M492.85,129.33c-9.05-0.06-18.09-0.12-27.14-0.18c-0.18-0.36-0.36-0.72-0.54-1.08
			c9.23,0.01,18.47,0.02,27.7,0.03C492.86,128.5,492.86,128.91,492.85,129.33z"/>
		<path class="st130" d="M498.83,128.09c8.54,0.16,17.08,0.33,25.61,0.49c-8.54,0.28-17.08,0.56-25.62,0.83
			C498.82,128.98,498.82,128.53,498.83,128.09z"/>
		<path class="st131" d="M147.72,129.13c-0.03-0.39-0.07-0.77-0.1-1.16c6.73-0.01,13.45-0.02,20.18-0.02
			c0.04,0.37,0.07,0.74,0.11,1.12C161.18,129.08,154.45,129.11,147.72,129.13z"/>
		<path class="st131" d="M411.29,127.97c-0.03,0.38-0.07,0.76-0.1,1.14c-6.73-0.02-13.46-0.03-20.19-0.05
			c0.03-0.38,0.06-0.75,0.09-1.13C397.82,127.95,404.55,127.96,411.29,127.97z"/>
		<path class="st129" d="M74.28,127.58c6.24,0.17,12.49,0.33,18.73,0.5c0.02,0.36,0.05,0.73,0.07,1.09
			c-6.27,0.03-12.54,0.07-18.81,0.11C74.27,128.71,74.27,128.15,74.28,127.58z"/>
		<path class="st132" d="M56.28,127.35c1.77,0.21,3.54,0.42,5.31,0.63c-0.51,0.49-1.02,0.99-1.53,1.48c-4,0-8,0-12,0
			c0-0.47,0-0.93,0-1.4c0.5-0.01,1-0.01,1.5-0.02c1.25,0,2.5,0,3.75,0C54.29,127.81,55.28,127.58,56.28,127.35z"/>
		<path class="st130" d="M48.05,128.06c0,0.47,0,0.93,0,1.4c-4.27-0.29-8.55-0.59-12.82-0.88
			C39.51,128.41,43.78,128.23,48.05,128.06z"/>
		<path class="st133" d="M74.28,127.58c0,0.57,0,1.13,0,1.7c-2.73,0.03-5.47,0.06-8.2,0.09c-0.24-0.44-0.49-0.89-0.73-1.33
			c0-0.21,0.02-0.42,0.06-0.62C68.36,127.47,71.32,127.53,74.28,127.58z"/>
		<path class="st134" d="M465.17,128.07c0.18,0.36,0.36,0.72,0.54,1.08c-3.19,0-6.37,0.01-9.56,0.01c0.02-0.4,0.04-0.8,0.05-1.2
			C459.19,128,462.18,128.03,465.17,128.07z"/>
		<path class="st134" d="M93.08,129.18c-0.02-0.36-0.05-0.73-0.07-1.09c2.99-0.01,5.98-0.03,8.97-0.04
			c0.01,0.38,0.03,0.75,0.04,1.13C99.04,129.17,96.06,129.17,93.08,129.18z"/>
		<path class="st135" d="M65.34,128.04c0.24,0.44,0.49,0.89,0.73,1.33c-2.01,0.03-4.01,0.06-6.02,0.08
			c0.51-0.49,1.02-0.99,1.53-1.48c0.97,0,1.94,0,2.91,0C64.78,128,65.06,128.02,65.34,128.04z"/>
		<path class="st136" d="M498.83,128.09c0,0.44,0,0.88-0.01,1.32c-1.99-0.03-3.98-0.06-5.97-0.09c0.01-0.41,0.01-0.82,0.02-1.24
			C494.85,128.09,496.84,128.09,498.83,128.09z"/>
		<path class="st137" d="M172.36,127.31c-1.52,0.07-3.05,0.13-4.57,0.2C169.31,127.44,170.84,127.37,172.36,127.31z"/>
		<path class="st137" d="M53.3,128.04c-1.25,0-2.5,0-3.75,0c1.25-0.23,2.5-0.47,3.75-0.7C53.3,127.58,53.3,127.81,53.3,128.04z"/>
		<path class="st138" d="M53.3,128.04c0-0.23,0-0.46,0-0.7c0.99,0,1.98,0,2.98,0.01C55.28,127.58,54.29,127.81,53.3,128.04z"/>
		<path class="st132" d="M65.34,128.04c-0.28-0.02-0.56-0.04-0.84-0.06c0.3-0.19,0.6-0.38,0.9-0.56
			C65.36,127.62,65.34,127.83,65.34,128.04z"/>
	</g>
</g>
</svg>
